<svg width="14" height="14" viewBox="0 0 14 14" fill="none" xmlns="http://www.w3.org/2000/svg">
<path d="M7 1.75V2.91667" stroke="#D9D9D9" stroke-width="2" stroke-linecap="round" stroke-linejoin="round"/>
<path d="M7.00001 2.91663C5.06918 2.91663 3.50001 4.48579 3.50001 6.41663V9.91663C2.91668 9.91663 2.33334 10.5 2.33334 11.0833H7.00001M7.00001 2.91663C8.93084 2.91663 10.5 4.48579 10.5 6.41663V9.91663C11.0833 9.91663 11.6667 10.5 11.6667 11.0833H7.00001" fill="#D9D9D9"/>
<path d="M7.00001 2.91663C5.06918 2.91663 3.50001 4.48579 3.50001 6.41663V9.91663C2.91668 9.91663 2.33334 10.5 2.33334 11.0833H7.00001H11.6667C11.6667 10.5 11.0833 9.91663 10.5 9.91663V6.41663C10.5 4.48579 8.93084 2.91663 7.00001 2.91663Z" stroke="#D9D9D9" stroke-width="2" stroke-linecap="round" stroke-linejoin="round"/>
<path d="M5.83334 11.6666C5.83334 12.3083 6.35834 12.8333 7.00001 12.8333C7.64168 12.8333 8.16668 12.3083 8.16668 11.6666" stroke="#D9D9D9" stroke-width="2" stroke-linecap="round" stroke-linejoin="round"/>
</svg>
