<svg width="14" height="14" viewBox="0 0 14 14" fill="none" xmlns="http://www.w3.org/2000/svg">
<path d="M7 1.75V2.91667" stroke="#95CA14" stroke-width="2" stroke-linecap="round" stroke-linejoin="round"/>
<path d="M7.00001 2.91669C5.06918 2.91669 3.50001 4.48585 3.50001 6.41669V9.91669C2.91668 9.91669 2.33334 10.5 2.33334 11.0834H7.00001M7.00001 2.91669C8.93084 2.91669 10.5 4.48585 10.5 6.41669V9.91669C11.0833 9.91669 11.6667 10.5 11.6667 11.0834H7.00001" fill="#95CA14"/>
<path d="M7.00001 2.91669C5.06918 2.91669 3.50001 4.48585 3.50001 6.41669V9.91669C2.91668 9.91669 2.33334 10.5 2.33334 11.0834H7.00001H11.6667C11.6667 10.5 11.0833 9.91669 10.5 9.91669V6.41669C10.5 4.48585 8.93084 2.91669 7.00001 2.91669Z" stroke="#95CA14" stroke-width="2" stroke-linecap="round" stroke-linejoin="round"/>
<path d="M5.83334 11.6667C5.83334 12.3084 6.35834 12.8334 7.00001 12.8334C7.64168 12.8334 8.16668 12.3084 8.16668 11.6667" stroke="#95CA14" stroke-width="2" stroke-linecap="round" stroke-linejoin="round"/>
</svg>
