<svg width="38" height="38" viewBox="0 0 38 38" fill="none" xmlns="http://www.w3.org/2000/svg">
<g clip-path="url(#clip0_366_500)">
<path d="M1.78125 17.2187V36.2187H36.2188V17.2187C36.2188 -5.93753 1.78125 -5.58128 1.78125 17.2187Z" fill="#0961A1"/>
<path d="M4.2749 18.525V36.2188H33.6655V18.525C33.7249 -2.9687 4.2749 -2.67183 4.2749 18.525Z" fill="#0961A1"/>
<path d="M4.75 18.8218V36.2187H33.25V18.8218C33.25 -2.43443 4.75 -2.07818 4.75 18.8218Z" fill="#C9C9C9"/>
<path d="M0 36.2188H38V38H0V36.2188Z" fill="#94989B"/>
<path d="M20.9 18.1093H30.7563C30.4 10.9249 25.8281 7.06553 20.9 6.35303V18.1093ZM17.6344 18.1093V6.4124C12.7063 7.1249 8.13438 11.103 7.77813 18.1093H17.6344ZM20.9 21.4343H30.8156V33.2499H20.9V21.4343ZM7.71875 21.4343H17.6344V33.2499H7.71875V21.4343Z" fill="#0961A1"/>
<path d="M20.6625 17.872H30.5188C30.1625 10.6876 25.5906 6.82822 20.6625 6.11572V17.872ZM17.3375 17.872V6.1751C12.4094 6.8876 7.8375 10.8657 7.48125 17.872H17.3375ZM20.6625 21.197H30.5781V33.0126H20.6625V21.197ZM7.42188 21.197H17.3375V33.0126H7.42188V21.197Z" fill="#0961A1"/>
<path d="M28.2031 17.1594H32.3594V25.4719H28.2031V17.1594Z" fill="#FFCE31"/>
<path d="M28.5 17.4563H32.0625V25.175H28.5V17.4563Z" fill="#F2B200"/>
<path d="M30.875 24.4624L30.6375 22.8593C30.7562 22.7405 30.875 22.5624 30.875 22.3843C30.875 22.028 30.6375 21.7905 30.2812 21.7905C29.925 21.7905 29.6875 22.028 29.6875 22.3843C29.6875 22.5624 29.8063 22.7405 29.925 22.8593L29.6875 24.4624H30.875Z" fill="#3E4347"/>
<path d="M30.2814 21.3156C31.2324 21.3156 32.0033 20.5447 32.0033 19.5937C32.0033 18.6427 31.2324 17.8718 30.2814 17.8718C29.3305 17.8718 28.5596 18.6427 28.5596 19.5937C28.5596 20.5447 29.3305 21.3156 30.2814 21.3156Z" fill="#B78300"/>
<path d="M31.9437 19.2968C31.9437 20.2468 31.1719 21.0187 30.2219 21.0187C29.2719 21.0187 28.5 20.2468 28.5 19.2968C28.5 18.3468 29.2719 17.575 30.2219 17.575C31.1719 17.575 31.9437 18.3468 31.9437 19.2968Z" fill="#FFD664"/>
</g>
<defs>
<clipPath id="clip0_366_500">
<rect width="38" height="38" fill="white"/>
</clipPath>
</defs>
</svg>
